<svg width="32" height="32" viewBox="0 0 32 32" fill="none" xmlns="http://www.w3.org/2000/svg">
<rect width="32" height="32" rx="6" fill="#EC407A"/>
<path d="M12.5 13.9219V13.5938C12.5 12.7822 13.0469 12.1172 13.8256 11.9209L23.3735 9.36805C23.5353 9.32475 23.7049 9.31919 23.8692 9.35181C24.0335 9.38442 24.1881 9.45434 24.3211 9.55617C24.4541 9.65799 24.562 9.78901 24.6363 9.9391C24.7107 10.0892 24.7496 10.2544 24.75 10.4219V11.625" stroke="white" stroke-width="1.75" stroke-linecap="round" stroke-linejoin="round"/>
<path d="M24.75 18.1842V22.5592C24.75 23.3199 24.2616 23.9587 23.5469 24.1998L22.3438 24.6373C20.9273 25.1142 19.5 24.0675 19.5 22.5592C19.4967 22.1718 19.6169 21.7933 19.843 21.4787C20.0691 21.1641 20.3895 20.9296 20.7578 20.8092L23.5469 19.8166C24.2616 19.576 24.75 18.9449 24.75 18.1842ZM24.75 18.1842V5.17187C24.7496 5.08815 24.73 5.00563 24.6927 4.93067C24.6554 4.85572 24.6014 4.79033 24.5348 4.73956C24.4682 4.68878 24.3909 4.65397 24.3087 4.63781C24.2266 4.62164 24.1418 4.62456 24.0609 4.64633L13.1562 7.57812C12.9661 7.63184 12.7988 7.74659 12.6802 7.90469C12.5616 8.0628 12.4983 8.2555 12.5 8.45312V20.8125M12.5 20.8125C12.5 21.5732 12.0116 22.2125 11.2969 22.4531L8.45312 23.4375C7.69406 23.6934 7.25 24.3792 7.25 25.1875C7.25 26.6958 8.70031 27.7332 10.0938 27.2656L11.2969 26.8281C12.0116 26.5875 12.5 25.9487 12.5 25.1875V20.8125Z" stroke="white" stroke-width="1.75" stroke-linecap="round" stroke-linejoin="round"/>
</svg>
