<svg width="32" height="32" viewBox="0 0 32 32" fill="none" xmlns="http://www.w3.org/2000/svg">
<rect width="32" height="32" rx="6" fill="#EC407A"/>
<path d="M12 13.625V13.25C12 12.3225 12.625 11.5625 13.515 11.3381L24.4269 8.42063C24.6118 8.37114 24.8056 8.36479 24.9934 8.40207C25.1812 8.43934 25.3579 8.51925 25.5099 8.63562C25.6619 8.75199 25.7851 8.90172 25.8701 9.07326C25.9551 9.2448 25.9995 9.43357 26 9.62501V11" stroke="black" stroke-width="2.2" stroke-linecap="round" stroke-linejoin="round"/>
<path d="M26 18.4962V23.4962C26 24.3656 25.4419 25.0956 24.625 25.3712L23.25 25.8712C21.6313 26.4162 20 25.22 20 23.4962C19.9963 23.0534 20.1336 22.621 20.392 22.2614C20.6504 21.9018 21.0166 21.6338 21.4375 21.4962L24.625 20.3619C25.4419 20.0869 26 19.3656 26 18.4962ZM26 18.4962V3.62499C25.9996 3.5293 25.9772 3.43499 25.9345 3.34933C25.8919 3.26367 25.8301 3.18894 25.754 3.13091C25.6779 3.07288 25.5896 3.0331 25.4957 3.01463C25.4018 2.99615 25.3049 2.99948 25.2125 3.02437L12.75 6.37499C12.5326 6.43638 12.3415 6.56752 12.206 6.74821C12.0704 6.9289 11.9981 7.14913 12 7.37499V21.5M12 21.5C12 22.3694 11.4419 23.1 10.625 23.375L7.375 24.5C6.5075 24.7925 6 25.5762 6 26.5C6 28.2237 7.6575 29.4094 9.25 28.875L10.625 28.375C11.4419 28.1 12 27.37 12 26.5V21.5Z" stroke="black" stroke-width="2.2" stroke-linecap="round" stroke-linejoin="round"/>
</svg>
