<svg width="110" height="32" fill="none" xmlns="http://www.w3.org/2000/svg"><rect width="32" height="32" rx="6" fill="#EC407A"/><path d="M12.5 13.922v-.328c0-.812.547-1.477 1.326-1.673l9.547-2.553a1.094 1.094 0 0 1 1.377 1.054v1.203" stroke="#fff" stroke-width="1.75" stroke-linecap="round" stroke-linejoin="round"/><path d="M24.75 18.184v4.375c0 .76-.488 1.4-1.203 1.64l-1.203.438c-1.417.477-2.844-.57-2.844-2.078a1.825 1.825 0 0 1 1.258-1.75l2.789-.992c.715-.241 1.203-.872 1.203-1.633Zm0 0V5.172a.547.547 0 0 0-.69-.526L13.157 7.578a.902.902 0 0 0-.656.875v12.36m0 0c0 .76-.488 1.4-1.203 1.64l-2.844.985c-.759.255-1.203.941-1.203 1.75 0 1.508 1.45 2.545 2.844 2.078l1.203-.438c.715-.24 1.203-.88 1.203-1.64v-4.375Z" stroke="#fff" stroke-width="1.75" stroke-linecap="round" stroke-linejoin="round"/><g filter="url(#a)"><path d="M59.02 27.92c-.62 0-1.2-.14-1.74-.42-.54-.28-1.04-.64-1.5-1.08-.44-.42-.86-.85-1.26-1.29-.04-.06-.12-.15-.24-.27l-.06-.03-.09-.06c-.16-.1-.17-.22-.03-.36l-.06.03c-.08 0-.17-.04-.27-.12-.08-.06-.11-.13-.09-.21l.03-.03v-.12h.03-.06c-.06.06-.1.09-.12.09-.08 0-.12-.05-.12-.15h-.03c-.06 0-.09-.04-.09-.12 0-.08.01-.13.03-.15 0-.06-.03-.1-.09-.12l-.12-.06c-.04 0-.08-.02-.12-.06-.02-.04-.12-.17-.3-.39l-.48-.6c-.16-.22-.24-.34-.24-.36v-.09h-.03c-.06 0-.09-.01-.09-.03-.12-.14-.24-.29-.36-.45-.1-.16-.2-.31-.3-.45-.32-.44-.58-.91-.78-1.41-.2-.5-.46-.97-.78-1.41-.14-.18-.33-.43-.57-.75-.22-.32-.45-.48-.69-.48-.04 0-.11.01-.21.03-.08.02-.13.09-.15.21l-.12-.09h-.09l-.03-.21h.09c.14-.16.35-.29.63-.39.3-.1.55-.15.75-.15.24 0 .44.08.6.24.16.14.35.21.57.21h.21c.12-.02.19-.06.21-.12.16.02.36 0 .6-.06s.44-.1.6-.12c.22-.14.45-.24.69-.3.26-.06.51-.13.75-.21.34-.1.79-.26 1.35-.48.58-.24 1.16-.51 1.74-.81.6-.32 1.1-.65 1.5-.99.42-.36.63-.72.63-1.08 0-.2-.09-.38-.27-.54-.16-.16-.33-.3-.51-.42-.68-.44-1.43-.71-2.25-.81-.82-.1-1.64-.15-2.46-.15h-1.71c-.54 0-1.07.01-1.59.03-.52 0-1.04.04-1.56.12-1.04.14-2.08.29-3.12.45-1.02.14-2.03.4-3.03.78-.14.06-.38.17-.72.33-.32.14-.47.29-.45.45 0 .08.07.14.21.18.16.02.34.05.54.09.22.02.43.03.63.03h.45l.03.18h-.12a.68.68 0 0 1-.45.15 2.966 2.966 0 0 0-.84 0c-.14.02-.29.03-.45.03-.26 0-.55-.09-.87-.27-.3-.2-.47-.46-.51-.78 0-.14.13-.32.39-.54.26-.22.54-.42.84-.6.3-.18.51-.27.63-.27h.03c.02 0 .04.01.06.03h.03l.57-.27.03.06 1.26-.36c.44-.12.88-.19 1.32-.21h.15c.06 0 .1-.02.12-.06.52-.08 1.02-.14 1.5-.18.48-.06.97-.11 1.47-.15l.48-.06c.16-.04.31-.06.45-.06.38 0 .76.01 1.14.03.4 0 .79.01 1.17.03.8 0 1.67.03 2.61.09.96.06 1.88.23 2.76.51.88.26 1.61.73 2.19 1.41.2.22.34.45.42.69.1.24.16.51.18.81v.18c0 .06.01.12.03.18.04.38-.08.74-.36 1.08-.28.34-.59.59-.93.75-.2.08-.38.18-.54.3-.16.12-.33.21-.51.27-.24.08-.5.16-.78.24-.26.06-.51.13-.75.21-.72.26-1.49.45-2.31.57-.8.1-1.61.15-2.43.15.06.18.17.42.33.72l.54.84c.2.26.34.46.42.6.28.38.64.89 1.08 1.53.44.64.93 1.32 1.47 2.04.56.74 1.13 1.43 1.71 2.07.6.66 1.18 1.19 1.74 1.59.58.42 1.11.63 1.59.63.34 0 .64-.13.9-.39.18-.18.31-.54.39-1.08.1-.54.15-1.06.15-1.56 0-.4-.03-.72-.09-.96h.21v.06h.03c.22.34.34.68.36 1.02.02.26.05.51.09.75.06.24.09.49.09.75s-.04.5-.12.72c-.1.24-.33.45-.69.63-.34.2-.71.35-1.11.45-.4.12-.72.18-.96.18Zm-13.23-3.96c-.32 0-.67-.1-1.05-.3-.36-.18-.68-.41-.96-.69-.28-.28-.43-.57-.45-.87-.04-.4.01-.78.15-1.14.14-.38.29-.72.45-1.02.08-.16.16-.31.24-.45.08-.14.15-.27.21-.39.14-.2.21-.37.21-.51.04-.04.1-.09.18-.15.08-.08.1-.14.06-.18.54-.88 1.1-1.72 1.68-2.52.06-.08.11-.16.15-.24.06-.1.12-.19.18-.27.14-.18.28-.35.42-.51l.45-.51c.22-.28.43-.56.63-.84a7.75 7.75 0 0 1 1.08-1.32c.2-.2.3-.38.3-.54 0-.06-.03-.12-.09-.18l-.06-.06a.324.324 0 0 1-.09-.24l.09-.09c.12.02.35.07.69.15.34.08.66.21.96.39.3.16.45.37.45.63 0 .2-.11.41-.33.63-.22.22-.46.42-.72.6-.24.18-.43.35-.57.51-.48.52-1.03 1.13-1.65 1.83-.6.7-1.18 1.45-1.74 2.25-.56.78-1.01 1.58-1.35 2.4-.34.8-.48 1.57-.42 2.31.02.18.07.35.15.51.08.18.22.28.42.3.1-.06.26-.16.48-.3.22-.14.44-.29.66-.45.24-.16.45-.31.63-.45.2-.14.3-.25.3-.33h.24c-.08.22-.17.38-.27.48-.08.1-.19.24-.33.42-.18.26-.37.51-.57.75-.2.26-.47.39-.81.39Zm15.055.12c-.12 0-.24-.01-.36-.03-.12 0-.25-.01-.39-.03-.36-.06-.69-.23-.99-.51-.28-.28-.47-.59-.57-.93-.02-.12-.03-.24-.03-.36s-.01-.25-.03-.39l-.03-.24c.04-.16.1-.28.18-.36a.37.37 0 0 1-.06-.21c0-.1.02-.2.06-.3.06-.12.09-.23.09-.33.16-.18.29-.37.39-.57.12-.2.17-.42.15-.66l.09-.06c-.22 0-.48-.03-.78-.09-.3-.06-.57-.17-.81-.33a.919.919 0 0 1-.42-.66c0-.2.1-.37.3-.51.18-.14.4-.25.66-.33.26-.1.46-.15.6-.15.18-.06.39-.09.63-.09l.03.18h-.03c-.2.08-.44.19-.72.33-.28.14-.5.28-.66.42-.16.12-.2.2-.12.24.1.1.39.15.87.15l.21-.03.96-.27c.1-.04.22-.15.36-.33.16-.2.27-.34.33-.42.14-.16.29-.31.45-.45.18-.16.37-.23.57-.21v.15c.02.04 0 .07-.06.09-.08.1-.22.26-.42.48-.18.22-.3.39-.36.51l4.38-1.14c.24-.06.49-.1.75-.12.26-.04.51-.1.75-.18.38-.12.75-.21 1.11-.27.38-.08.75-.19 1.11-.33.16-.06.31-.23.45-.51.16-.28.31-.49.45-.63.24-.24.45-.5.63-.78.2-.3.4-.58.6-.84.18-.24.38-.49.6-.75.22-.28.43-.55.63-.81.08-.08.2-.23.36-.45.16-.22.31-.44.45-.66.16-.24.25-.41.27-.51l.03-.06c0-.06.02-.11.06-.15l.45-.57c.14.12.21.23.21.33 0 .08-.06.2-.18.36-.08.08-.15.19-.21.33s-.12.27-.18.39l-.42.72c-.14.22-.29.45-.45.69-.22.32-.44.66-.66 1.02-.22.34-.47.66-.75.96-.02.02-.04.05-.06.09a.47.47 0 0 1-.09.12c-.02.04-.1.16-.24.36-.12.18-.25.38-.39.6-.14.22-.26.4-.36.54.64-.08 1.28-.18 1.92-.3.1-.62.28-1.26.54-1.92.28-.66.58-1.28.9-1.86.34-.58.63-1.05.87-1.41.02-.02.03-.06.03-.12v-.18c0-.18.11-.41.33-.69.22-.3.46-.58.72-.84.26-.28.46-.48.6-.6.16.06.41.15.75.27.36.1.57.23.63.39l.18.48c-.1.08-.19.15-.27.21-.08.04-.15.11-.21.21l-.12.24-.18.27-.33.45c-.28.36-.44.59-.48.69-.02.04-.12.17-.3.39l-.51.57c-.14.16-.18.21-.12.15l.03-.03c-.08.22-.19.43-.33.63-.12.18-.24.38-.36.6-.12.16-.23.34-.33.54-.08.18-.15.41-.21.69l-.09.39c.22 0 .44-.01.66-.03.22-.02.44-.03.66-.03.64 0 1.26.12 1.86.36.62.24 1.11.66 1.47 1.26.08.1.11.22.09.36v.39c0 .28-.13.54-.39.78s-.55.46-.87.66c-.32.18-.58.33-.78.45v-.09h-.06v-.18c.18-.12.38-.32.6-.6.22-.28.41-.56.57-.84.16-.3.24-.54.24-.72 0-.3-.19-.51-.57-.63-.36-.14-.76-.22-1.2-.24-.44-.02-.77-.03-.99-.03-.18 0-.41.01-.69.03-.28 0-.5.03-.66.09-.16.04-.3.24-.42.6-.1.34-.18.71-.24 1.11-.04.4-.08.7-.12.9-.02.2-.05.35-.09.45.02.06.03.12.03.18.02.06.03.12.03.18.02.2.03.41.03.63 0 .2.01.41.03.63.02.28.07.63.15 1.05.08.42.22.79.42 1.11.22.3.54.46.96.48.26 0 .51-.08.75-.24.24-.18.4-.36.48-.54.04-.06.08-.08.12-.06.06 0 .1.02.12.06v.06c.02 0 .03.01.03.03 0 .02-.01.06-.03.12 0 .04-.01.09-.03.15-.06.22-.25.4-.57.54-.3.14-.56.21-.78.21-.98 0-1.72-.28-2.22-.84-.5-.58-.82-1.22-.96-1.92-.06-.26-.1-.51-.12-.75a7.997 7.997 0 0 1 0-1.41c.04-.24.08-.46.12-.66.08-.36.16-.7.24-1.02.1-.32.18-.64.24-.96-.12.02-.35.09-.69.21-.32.1-.65.22-.99.36-.32.14-.56.27-.72.39-.34.28-.64.62-.9 1.02s-.53.78-.81 1.14l-.27.36c-.12.14-.24.29-.36.45-.14.16-.27.31-.39.45s-.22.24-.3.3c-.04.04-.09.08-.15.12-.06.04-.11.08-.15.12-.12.14-.23.28-.33.42-.08.12-.17.25-.27.39l-.27.21-.66.54c-.22.18-.45.35-.69.51-.5.38-1.01.68-1.53.9-.52.24-1.08.36-1.68.36Zm-.33-.54c.12 0 .3-.06.54-.18.24-.1.48-.22.72-.36.26-.14.44-.24.54-.3.66-.46 1.27-.96 1.83-1.5.56-.56 1.1-1.12 1.62-1.68.22-.24.45-.47.69-.69.24-.22.46-.46.66-.72.08-.1.16-.21.24-.33.08-.12.16-.23.24-.33l.12-.12.12-.12.27-.21c.14-.1.25-.21.33-.33-.16.02-.45.09-.87.21l-1.47.42c-.54.14-1.09.29-1.65.45-.54.16-1.02.31-1.44.45-.42.14-.7.25-.84.33-.28.18-.61.34-.99.48-.18.08-.36.17-.54.27-.16.08-.3.16-.42.24-.18.12-.33.34-.45.66-.1.32-.18.67-.24 1.05-.04.38-.06.71-.06.99 0 .38.07.69.21.93.14.26.42.39.84.39Zm29.092-5.61h-1.17l-1.2-.06c-.24 0-.4-.02-.48-.06-.08-.06-.12-.12-.12-.18 0-.08.03-.15.09-.21l.12-.12-.03-.09c.08.02.13.05.15.09.04.02.07.03.09.03l.03-.03h.03c.08-.04.19-.06.33-.06.1 0 .19.01.27.03h.24c.18 0 .36-.01.54-.03l.6-.06c.04 0 .16-.02.36-.06.06-.02.11-.03.15-.03.06-.02.1-.05.12-.09H90.297c.1-.02.16-.06.18-.12.3 0 .59-.03.87-.09.3-.08.6-.14.9-.18.2-.04.38-.1.54-.18.18-.1.38-.16.6-.18l.96-.36c.16-.06.28-.13.36-.21l.3-.24a.47.47 0 0 1 .12-.09c.06-.04.12-.07.18-.09.4-.2.72-.48.96-.84s.42-.72.54-1.08c.12-.38.18-.66.18-.84 0-.62-.24-1.1-.72-1.44-.46-.34-1.04-.59-1.74-.75-.68-.16-1.38-.26-2.1-.3-.72-.04-1.32-.06-1.8-.06-.2 0-.4.02-.6.06-.18.04-.37.08-.57.12-.3.06-.61.09-.93.09-.3-.02-.6-.01-.9.03-1.28.26-2.56.65-3.84 1.17-1.26.5-2.39 1.13-3.39 1.89-.24.18-.52.41-.84.69-.32.26-.59.54-.81.84-.22.3-.32.6-.3.9 0 .06.05.15.15.27.1.12.15.22.15.3 0 .1-.08.15-.24.15-.2-.1-.36-.31-.48-.63-.1-.34-.15-.59-.15-.75-.06-.58.02-1.15.24-1.71.24-.58.64-.97 1.2-1.17.16-.06.32-.1.48-.12.18-.04.34-.08.48-.12.22-.08.44-.2.66-.36.24-.18.46-.34.66-.48.16-.02.31-.06.45-.12.14-.08.28-.14.42-.18.2-.08.53-.19.99-.33.46-.16.92-.3 1.38-.42.46-.14.78-.21.96-.21.16-.1.34-.16.54-.18.2-.04.4-.06.6-.06.1-.06.27-.11.51-.15.24-.06.42-.08.54-.06.08-.02.26-.04.54-.06.28-.02.59-.04.93-.06.34-.04.63-.07.87-.09l.39-.03c.52 0 1.05.01 1.59.03.56 0 1.1.07 1.62.21.62.14 1.24.38 1.86.72.62.32 1.15.73 1.59 1.23.44.5.69 1.07.75 1.71.02.32-.01.63-.09.93-.08.28-.2.55-.36.81-.44.74-1.08 1.32-1.92 1.74-.84.42-1.7.74-2.58.96-.2.04-.41.09-.63.15-.22.04-.44.07-.66.09-.38.02-.77.06-1.17.12-.38.04-.75.06-1.11.06Zm-4.11 5.94c-.3 0-.64-.1-1.02-.3-.38-.2-.71-.45-.99-.75-.28-.32-.44-.62-.48-.9-.04-.52.06-1.05.3-1.59.24-.56.49-1.05.75-1.47.26-.44.38-.74.36-.9.04-.04.1-.09.18-.15.1-.08.13-.14.09-.18.54-.88 1.1-1.72 1.68-2.52.06-.08.11-.16.15-.24.04-.1.09-.19.15-.27.14-.18.29-.35.45-.51l.45-.51c.22-.28.43-.56.63-.84.2-.3.4-.58.6-.84.1-.12.25-.28.45-.48.22-.22.33-.41.33-.57a.644.644 0 0 0-.12-.15l-.03-.06a.285.285 0 0 1-.12-.24l.09-.09c.12.02.35.08.69.18.36.1.69.24.99.42.3.18.45.4.45.66 0 .2-.11.41-.33.63-.2.2-.43.4-.69.6-.24.18-.44.35-.6.51-.48.5-1.03 1.13-1.65 1.89-.62.74-1.22 1.54-1.8 2.4-.58.84-1.05 1.69-1.41 2.55-.36.86-.51 1.67-.45 2.43.02.16.07.33.15.51.08.18.22.27.42.27l1.17-.72c.22-.16.42-.31.6-.45.2-.14.3-.26.3-.36h.27c-.08.22-.17.39-.27.51-.1.1-.21.24-.33.42-.18.24-.38.48-.6.72-.2.26-.47.39-.81.39Z" fill="#fff"/></g><defs><filter id="a" x="38.67" y="6.61" width="62.487" height="24.31" filterUnits="userSpaceOnUse" color-interpolation-filters="sRGB"><feFlood flood-opacity="0" result="BackgroundImageFix"/><feColorMatrix in="SourceAlpha" values="0 0 0 0 0 0 0 0 0 0 0 0 0 0 0 0 0 0 127 0" result="hardAlpha"/><feOffset dx="1" dy="1"/><feGaussianBlur stdDeviation="1"/><feComposite in2="hardAlpha" operator="out"/><feColorMatrix values="0 0 0 0 0 0 0 0 0 0 0 0 0 0 0 0 0 0 0.2 0"/><feBlend in2="BackgroundImageFix" result="effect1_dropShadow_313_219"/><feBlend in="SourceGraphic" in2="effect1_dropShadow_313_219" result="shape"/></filter></defs></svg>